<?xml version="1.0" encoding="UTF-8"?>
<!DOCTYPE svg PUBLIC "-//W3C//DTD SVG 1.1//EN" "http://www.w3.org/Graphics/SVG/1.1/DTD/svg11.dtd">
<!-- Creator: CorelDRAW 2019 (64-Bit) -->
<svg xmlns="http://www.w3.org/2000/svg" xml:space="preserve" width="150.789mm" height="64mm" version="1.1" style="shape-rendering:geometricPrecision; text-rendering:geometricPrecision; image-rendering:optimizeQuality; fill-rule:evenodd; clip-rule:evenodd"
viewBox="0 0 18662.76 7921.13"
 xmlns:xlink="http://www.w3.org/1999/xlink"
 xmlns:xodm="http://www.corel.com/coreldraw/odm/2003">
 <defs>
  <style type="text/css">
   <![CDATA[
    .fil0 {fill:#1F1B20}
   ]]>
  </style>
 </defs>
 <g id="Слой_x0020_1">
  <metadata id="CorelCorpID_0Corel-Layer"/>
  <path class="fil0" d="M9725.67 88.41c-70.07,-20.44 -22.76,-0.58 -33.88,-31.29l-6.83 -32.52 -569.92 11.71c-89.54,-0.9 -108.46,-2.48 -161.1,30.96 -1.8,1.14 -6.12,3.93 -7.55,4.85 -3.15,2.01 -92.31,-21.58 -132.66,-12.11 -151.26,35.47 20.28,46.63 -310.03,44.2 -102.06,-0.75 -82.15,-31.08 -148.37,-18.71 -18.26,33.46 -8.42,28.68 -35.8,67.88 -113.3,12.55 -238.36,53.01 -333.26,23.8 -71.37,-21.95 -131.82,19.06 -200.41,29.81 -137.83,21.58 -116.91,-23.18 -130.67,-74.26 -75.87,-0.51 -16.52,5.12 -86.78,13.72l-10.23 30.72c-18.45,45.03 -38.96,55.7 -87.67,65.57 16.1,-58.16 22.71,-26.37 17.82,-95.22 -94.92,16.84 -107.78,9.32 -199.38,-6.62l-167.78 19.84c-120.21,28.52 -64.89,-22.21 -189.71,-20.93 -157.94,1.61 -714.08,42.5 -847.8,83.22 -62.99,19.17 -65.99,51.36 -136.75,100.9l1.86 67.07c109.59,-5.65 157.15,-14.7 199.64,17.99l-222.18 15.74 -27.05 63.53c-13.8,32.1 -12.93,23.59 -25.69,54.37l209.7 -7.45c-22.53,32.47 -82.11,23.9 -121.5,27.72 -45.73,4.43 -79.68,15.75 -110.68,26.99l-6.92 89.71c-57.12,2.95 -53.42,-4.43 -81.2,36.44 -22.29,32.8 -24.77,47.87 -66.83,47.43l-6.83 -23.21c-21.03,-78.42 -46.57,-109.93 -140.88,-78.07 3.29,54.85 25.53,20.23 44.42,55.17 -29.26,31.75 -2.91,2.93 -22.5,20.08l12.67 82.95c-26.83,-2.11 -35.28,-2.99 -53.16,-18.9 -47.42,-42.19 -18.29,-11.97 -18.8,-50.56l3.97 -38.2c0.31,-2.85 1.16,-6.79 1.4,-9.66 0.25,-2.88 1.11,-6.87 1.2,-9.74 2.13,-72.62 22.73,-23.46 -18.39,-56.5 -47.96,-31.08 -54.81,77.24 -169.43,-44.62 -62.75,8.86 -32.77,23.41 -70.31,13.51 -1.81,-0.49 -6.04,-2.43 -7.72,-3.01l-16.95 -8.24c-35.44,57.79 -35.32,58.45 -81.4,89.73 -28.07,-20.16 -12.2,-3.46 -32.42,-34.67 52.05,-32.55 31.61,25.72 58.46,-40.7 -20.81,-46.78 -6.4,-14.01 -42.94,-38.52l-77.05 -27.23c-4.72,-1.03 -8.13,-1.24 -12.75,-2.38l-24.88 -8.09c-3.45,-1.11 -8.64,-2.55 -12.2,-5.17 27.81,-41.28 38.14,-23.1 59.56,-54.26 -14.57,-11.93 -38.31,-26.8 -61.86,-36.99 -8.08,20.01 -0.98,11.86 -9.33,30.66 -38.75,87.19 -120.29,19.04 -207.64,49.94 21.18,52.35 10.73,-4.83 46.57,51.35l-63.07 12.42c-45.39,-64.07 -66.14,-133.71 -106.46,-193.62l-19.96 -33.95c-32.8,-43.44 -31.82,-24.84 -84.59,-38.72 23.08,-56.42 -29.57,15.32 14.6,-17.1 1.54,-1.13 5.59,-5.2 7.47,-6.35l35.75 -7.55c-22.76,-19.94 -71.85,-32.4 -112.15,-35.6 70.07,68.67 -9.24,103.49 -15.87,116.99 36.71,36.79 55.61,26.35 23.06,81.26l-40.98 -1.08c-20.33,-38.51 -8.03,-40.09 -18.54,-76.96l-8.33 -24.09c-215.54,2.63 -151.7,-13.3 -210.46,-54.53 -26.7,-18.74 -49.62,-15.57 -68.18,-5.99 10.99,28.23 4.57,11.33 18.17,27.57 38.27,45.65 53.5,52.47 42.48,122.34l-100.39 -36.01c-68.64,-27.35 -168.94,-36.7 -227.41,-61.43 -17.77,-7.52 -30.76,-12.32 -46.59,-6.58 -28.89,10.48 -10.64,13.27 -36.95,41.46l-157.63 0.96c-16.67,33.26 0.93,24.55 -9.18,60.9 -63.32,-11.74 -28.97,-3.18 -63.77,-36.2l-70.95 -37.7c-38.82,-10.83 -68.69,-22.36 -92.78,-55.02 -59.84,-81.13 -68.86,-63.85 -176.62,-83.79 -113.93,-21.08 -161.93,-94.02 -173.24,41.9 -0.08,0.9 -1.63,35.25 -2.14,37.42 -14.66,62.49 -109.44,94.31 -34.5,160.51l-68.77 66.18c-28.48,-10.99 -234.72,-25.65 -291.79,-18.94 3.75,38.71 22.59,37.06 53.45,62.68l65.73 25.74c-47.41,27.91 -113.08,-22.55 -167.62,-9.53 -49.42,11.81 -29.01,-8.41 -45.4,36.66 25.2,49.94 118.75,37.14 166.34,54.26 -26.97,21.38 -79.09,11.36 -110.82,4.12 -54.15,-12.35 -63.22,-15.42 -127.58,-13.96 49.02,25.89 125.08,17.94 177.25,44.85 65.52,33.81 27.44,-1.23 38.24,46.38 -50.42,55.49 -80.8,-3.79 -124.12,-42.7 -46.88,3.86 -85.84,14.81 -115.49,42.7 51.55,32.38 125.32,38.92 196.59,42.46 125.04,6.23 134.91,-45.94 212.03,5.27l-36.07 20.5c-128.24,44.44 -254.96,-19.42 -379.18,-44.89 -12.17,22.3 -24.3,39.49 -13.57,62.53 67.94,18.52 128.78,11.42 177.39,47.99l-235.07 -3.4c2.54,3.94 6.72,3.9 8.17,8.54 14.51,46.34 193.44,60.46 223.83,76.36l-215.11 12.76 71.87 46.54c-8.87,3.21 -40.39,15.97 -50.36,18.4 -27.35,6.65 -44.04,3.38 -69.36,12.36 -42.4,15.03 -56.39,51.58 -52.78,93l158.21 33.11c-65.35,55.85 -137.86,-62.58 -194.46,56.85 70.95,46.34 198.09,62.98 225.26,81.39 -43.03,29.16 -150.71,-3.45 -212.79,-3.99 34.86,58.96 73.52,29.79 109.68,85.38 -86.42,45.63 -66.33,-40.18 -135.41,203.49 49.24,47.07 58.91,28.79 33.68,86.61l-22.85 98.39c-1.83,13.27 3.73,33.41 3.83,34.28 2.58,23.34 1.26,14.05 1.44,49.06 86.32,19.3 198.14,33.58 284.51,70.31 19.98,8.48 5.95,0.91 18.46,8.73 37.49,23.4 66.24,73.33 73.37,113.22 -52.32,-2.1 -44.18,-13.42 -96.06,-21.31 -19.42,-2.95 -31.86,-2.13 -50.34,-5.39 -37.54,-6.62 -36.31,-11.39 -50.12,-14.03 -65.5,-12.52 -101.71,1.16 -203.25,-34.46 -55.17,-19.34 -181.6,-22.54 -228.85,16.09 -94.56,77.31 -76.22,16.57 -103.63,83.58 -7.87,19.26 -9.46,40.64 -12.97,60.11l-76.65 -44.97c-27.56,-32.12 -32.86,-69.78 -32.82,-106.81l56.52 -29.24c49.04,-58.57 -0.3,-57.61 -0.31,-57.62 -62.31,-22.76 -35.9,21.51 -126.68,36.54 2.43,-2.98 6.2,-11.16 7.34,-8.88l19.64 -26.87c24.7,-39.01 63.78,-96.61 -9.17,-103.25 -95.97,-8.76 -3.58,29.13 -77.21,17.62 -33.61,-5.25 -18.99,-25.54 -74.16,-40.9 -46.49,-12.95 -40.84,0.39 -86.37,-23.62 -47.76,-25.19 -26.25,-18.01 -85.2,-38.27l-74.71 -36.45c-108.57,-28.24 -5.24,16.09 -94.91,1.15 -290.21,-48.33 -121.45,-61.01 -344.37,-112.13 -129.64,-29.74 -230.28,-94.6 -383.84,-73.36 -19.45,53.55 19.68,6.49 -12.55,39.02 -40.95,41.35 -19.76,-20.26 -52.23,35.74 13.58,40.04 62.38,52.11 96.32,82.24l-85.43 -18.71c-8.16,19 5.33,28.91 -0.39,45.93 -81.19,8.27 -94.37,54.21 -121.53,120.14l78.29 23.63c-41.94,27.68 -115.65,34.1 -160.29,58.76 -43.6,24.1 -90.73,89.21 -98.39,133.42 -9.06,52.23 8.23,41.69 -14.73,67.61 -47.59,53.71 -18.9,-14.43 -47.34,57.6 -35.4,89.64 1.35,77.1 -54.61,148.36 13.21,14.53 18.3,13.92 23.25,26.57 11.24,28.71 -21.68,6.4 3.21,95.42 -24.58,15.7 -50.51,31.93 -65.78,58.76 -23.51,41.28 -2.04,50.18 21.39,77 -48.21,28.19 -16.1,-6.62 -49.47,38.52 38.39,147.03 -36.05,81.91 76.89,178.53 -31.85,64.98 -32.4,-5.13 -48.47,67.83 -12.17,114.85 23.67,150.98 30.22,193.86 5.07,33.17 -8.51,28.19 -14.21,57.99 -30.11,157.21 129.67,139.09 158.46,211.01 8.69,21.74 21.38,10.93 16.96,64.6l-6.13 64.15c0.08,1.78 0.6,5.8 0.63,7.54 2.96,158.74 -47.32,71.93 -41.89,196.86l0.41 36.54c-9.09,46.77 -8.61,-24.62 -14.28,49.28 -4.18,54.31 13.18,28.24 9.42,91.48 -2.08,34.95 -16.92,62.58 -14.53,112.4 3.71,77.42 56.55,179.91 58.06,261.24 5.19,278.18 121.5,146.98 302.08,236.98 -3.66,92.65 -67.71,57.11 -92.18,179.48 -63.07,315.2 -153.06,471.62 -109.54,836.56 15.91,133.45 -15.53,23.78 32.05,214.9 10.96,44 9.07,90.04 17.69,134.79 43.08,223.72 217.86,145.57 333.52,242.73l-121.43 -9.28c58.72,53.1 151.15,24.98 229.28,52.45 46.8,24.04 -0.16,25.07 52.58,57.95 44.33,27.64 36.64,-6.4 63.44,43.65 -33.21,10.29 -100.48,-16.61 -136.36,-20.59 -146.92,-16.26 -71.46,-25.62 -165.56,-60.65 -40.5,29.34 -56.15,12.05 -57.95,67.67 32.71,17.79 85.08,13.11 125.68,17.65 16.09,1.8 57.29,6.59 71.3,9.63l60.49 26.98c-35.13,27.4 -82.62,15.63 -130.77,24.57 -19.42,3.6 -109.88,22.85 -125.27,29.69 -16.6,132.62 52.56,13.33 259.67,158.8l-76.46 2.1c-6.57,26.95 21.06,3.24 0.54,33.53l-22.2 19.15c-33.47,34.98 5.87,12.5 -43.05,47.62 -23.82,17.11 -32.32,18.99 -52.77,37.25 11.82,46.63 34.5,116.7 72.72,139.85 19.79,12 15.45,2.05 35.62,17.72 55.94,43.47 -13.77,64.68 151.2,62.79 51.61,-0.6 63.18,8.46 81.46,50.94 -39.36,24.68 -126.37,-22.84 -236.61,-10.38 45.59,37.54 28.91,4.87 40.28,51.08l-60.58 24.05c99.63,134.37 141.59,58.25 267.48,93.81 125.79,35.54 113.11,66.17 280.48,83.72 91.7,9.62 206.42,53.91 292.89,75.95 51.88,13.22 121.23,15.38 165.41,28.08 123.23,35.38 -29.23,61.99 110.92,74.17 -11.02,-26.93 -1.83,-5.25 -15.67,-23.31l-25.62 -30.89c123.89,-103.47 39.76,-154.16 232.89,-81.55 18.82,-16.3 37.77,-42.7 54.27,-67.83l66.98 16.51 14.42 -46.22c89.08,54.18 34.72,32.38 81.41,94.32 42.38,-54.77 24.19,-72.73 26.6,-142.5l81.94 -6.47c24.93,-60.38 -14.5,-27.42 40.7,-54.72 18.29,13.65 6.75,3.16 23.6,19.8 7.53,7.42 13.21,12.66 19.51,21.24 18.84,25.62 22.14,30.93 33.76,68.87l-96.3 -17.49c-18.11,32.98 -37.17,52 -21.28,81.54 36.59,-1.94 27.81,-11.18 45.84,-34.78l15.55 -23.82c3.4,54.87 -6.03,20.09 15.86,58.09 26.53,46.04 24.15,19.69 29.02,20.01l20.61 -4.35c50.38,0.79 52.18,57.85 81.08,81.43 6.57,5.37 31.02,22.53 39.54,28.03 40.14,25.9 59.08,25.3 106.29,44.29 50.02,20.13 85.57,39.38 115.89,85.58 34.43,52.47 -5.1,2.03 14.7,47.52 24.18,55.52 -2.69,25.72 31.01,26 52.68,0.46 38.19,-26.12 38.4,-26.32 36.46,-34.31 16.96,-40.4 97.9,2.26 5.54,75.67 -27.49,63.02 -0.43,109.01 53.22,-12.16 30.31,-13.82 46.09,-49.93l8.18 -22.29c100.9,22.26 98.34,82.29 149.21,113.87 43.37,26.92 67.09,-6.52 176.41,46.47 14.23,-17.67 0.86,-8.62 6.58,-35.32l6.99 -25.95c68.93,14.88 105.74,46.85 176.39,53.16l27.39 -39.58c-48.57,0 -32.78,8.38 -64.59,-13.3l-2.53 -65.52c32.88,6.28 31.42,2.51 53.63,24.29 25.12,24.63 9.06,26.64 44.6,51.51 59.7,41.76 75.04,13.48 91.58,87.86 -50.68,-25.62 -8.29,-19.54 -43.06,-23.9l-57.39 22.69c79.56,20.99 143.33,71.42 222.45,79.48 -9.04,-9.34 -21.23,-21.88 -36.51,-33.01 -46.08,-33.56 -14.37,11.37 -47.61,-34.87 45.29,-37.44 73.96,1.01 123.67,27.23 64.4,33.98 72.16,-13.51 133.35,54.17 -27.4,14.26 -17.81,4.13 -68.08,-3.3l-41.29 71.12c37.35,26.9 59.56,36.54 110.72,39.48l-56.05 -53.03 86.43 -40.7c-17.99,-70.22 -68.38,-62.48 -112.71,-108.52 82.21,-82.68 139.8,6.1 260.09,41.25l38.05 -52.6c76.79,2.14 136.21,-6.7 191.5,25.72 59.09,34.67 68.41,25.87 114.66,63.73 44.18,36.16 4.28,15.91 45.55,18.02 84.12,4.3 37.37,18.56 126.83,41.34 -32.23,-49.59 -51.58,-44.95 -73.4,-117.04 76.75,-0.61 92.21,19.02 128.81,14.58 2.08,-0.25 7.83,-4.79 13.55,-4.4 35.13,2.4 -16.07,-11.74 16.66,6.1 53.57,29.21 -0.83,-14.3 102.35,-6.4 75.25,5.75 35.76,21.58 110.17,-0.8 102.84,-30.94 115.56,7.73 148.59,3.25 74.76,-33.45 124.12,-88.06 187.23,20.11l103.99 -10.06c-2.63,54.35 -12.41,52.65 -5.4,75.6 29.04,-5.97 35.49,-21.29 53.37,-41.11 46.59,22.84 10.71,-0.55 40.28,43.88l29.19 -79.08 277.01 5.1 -36.49 -33.06c-25.7,-19.29 -20.03,-0.75 -32.11,-27.72 33.5,-25.43 58.67,-22.66 102.95,-20.18 93.22,5.24 62.44,-9.26 84.34,57.52 46.1,-14.6 5.65,-18.92 50.39,-34.75 39.69,37.27 26.89,56.27 74.28,57.67 -25.88,-65.52 -16.69,36.85 -23.31,-67.61l68.53 0.89c99.18,-12.63 188.71,9.23 330.72,30.71l-14.71 90.95 108.11 -4.78c-5.72,-68.66 -22.11,-29.08 -8.11,-92.41 142.5,-32.18 287.61,83.63 342.51,80.79 77.21,-3.99 77.5,-21.3 180.94,-5.45 92.31,14.13 117,13.92 216.94,16.79 69.58,1.99 127.29,15.91 192.07,23 121.11,13.27 149.41,-44.68 292.44,-7.03 66.2,17.42 57.67,3.03 96.21,4.23 118.43,3.7 107.16,21.23 181.74,48.46 32.15,-47.71 50.79,-68.82 132.48,-66.34 70.59,77.85 39.27,65.8 142.15,43.29 29.26,-6.4 80.76,-15.31 109.63,1.04 47.17,26.69 5.17,19.17 -5.33,71.55 46.9,-21.84 61.08,-53.85 84.63,-73 53.1,-43.14 91.63,-15.87 136.81,0.18 80.99,28.79 60.11,16.07 133.63,-3.36 135.99,-35.95 81.28,20.36 132.25,27.12 23.53,3.11 44.13,-12.91 121.18,-3.61 174.44,21.05 290.7,14.3 458.77,46.02 114.15,21.54 430.01,24.23 454.51,31.08 128.89,36.11 39.21,12.53 131.83,-0.85 41.33,-5.97 107.89,18.64 149.02,18.77 67.13,0.23 91.6,-12.36 146.53,2.39 167.18,44.9 244.19,-37.39 260.15,-38.27 74.99,17.3 19.84,30.73 135.79,22.23 169.2,-12.42 42.53,24.47 138.18,41.9 7.24,-14.56 36.76,-210.36 232.91,-152.66l132.98 20.84c-6.2,-78.46 -21.63,-40.66 -23.3,-92.73 74.91,-17.79 179.7,-29.37 259.18,-13.51 -10.91,23.93 -39.69,47.33 -47.76,86.23l5.89 45.09c2.09,27.86 -3.88,28.42 -9.06,65.89 149.65,-52.92 51.47,-12.62 152.07,23.05l10.42 -66.37c58.01,26.32 127.04,-1.48 184,-34.02 89.71,-51.25 74.03,-69.53 85.43,-172.65l73.58 -23.09c27.84,43.11 5.5,35.82 40.03,83.37 78.4,0.08 61.94,-34.65 149.24,-44.33 1.01,2.38 0.61,4.24 0.63,7.7 0,3.41 0.4,6.38 0.39,7.6l-1.18 30.61c-0.04,1.51 0.03,6.39 0,7.6 -0.01,1.25 -0.69,5.29 0.16,7.73 120.91,-16.7 106.47,-15.72 155.84,-106.31 85.38,-5.78 40.74,21.64 147.83,-16.22 59.45,-21.03 95.82,-32.31 171.21,-31.98 20.75,37 7.52,-14.91 1.28,19.34 -5.55,30.53 -1.78,-25.4 -10.49,31.5 41.15,9.89 31.37,16.06 71.26,12.5 -12.83,-46.04 -10.89,-8.93 -27.34,-61.93 20.3,-34.17 32.96,-69.82 87.41,-75.81 11.22,19.52 -7.97,31.52 0,50.97l146.08 25.34c23.36,-27.74 29.13,-46.09 49.29,-63.87 32.57,-28.71 26.3,-6.2 59.91,-45.15 -21.93,-55.9 9.34,-37.55 -34.32,-60.91 -41.65,-22.29 -44.77,-0.93 -69.43,17.87 7.88,-68.01 145.48,-86.13 184.72,-65.49 -14.61,43.74 -24.2,32.33 -69.68,48.04l70.61 18.35c-14.46,17.37 -29.59,34.47 -39.85,56.55 126.68,20.91 171.25,-59.21 264.27,-7 8.88,4.98 -26.25,26.69 37.4,7.53 21.34,-6.43 -10.76,-8.59 43.92,-20.39l270.61 -42.76c70.18,-16.32 185.49,-18.45 185.06,-101 -58.96,-28.26 -151.73,50.76 -220.11,11.81 35.08,-9.91 73.68,-19 121.13,-29.68l94.41 -29.69c21.45,-13 12.1,-7.14 25.48,-20.26 -42.83,-54.81 -112.05,-23.26 -183.03,-41.55 27.22,-65.82 140.69,-99.06 224.53,-99.43l-29.82 22.46c-14.02,10.98 -9.06,0.18 -28.28,23.55 48.23,26.35 -52.1,-21.6 20.09,3.11 1.84,0.64 6.28,1.91 8.34,2.74 2.35,0.93 6.83,3.01 9.16,4.04l20.09 11.06c-24.84,21.63 -4.89,69.74 27.1,92.78 24.14,17.39 14.9,14.35 49.57,21.18 30.47,-44.75 7.2,-85.72 101.71,-61.8 64.25,16.26 5.97,56.47 79.76,-8.87 23.58,-20.89 -3.36,-14.53 40.44,-32.11 -2.09,68.32 3.79,49.32 -17.07,100.55 78.79,-24.82 118.83,-10.44 202.04,-21.6l1.79 -103.15 165.53 -16.3c13.41,-19.55 23.44,-36.26 30.02,-69.26 -45.53,0.9 -58.79,-4.37 -93.25,8.41l-28.11 13.92c-95.91,39.79 -164.12,20.05 -180.33,-85.83 187.41,-36.7 107.07,-94.8 129.07,-111.83 65.37,-18.29 96.12,-16.21 162.82,-8.74 9.39,33.27 -7.74,37.44 0.26,83.19l111.82 -14.27c-25.93,40.7 -58.07,51.31 -57.34,109.63 58.04,-1.13 55.74,-16.17 100.4,-34.98l53.72 -13.38c24.95,-5.17 4.1,-4.6 24.45,-4.98l54.47 16.26c45.65,-62.56 74.97,-82.83 158.48,-98.7 93.22,-17.72 83.8,-72.81 189.98,-62.59 -20.13,41.43 -28.62,15.51 -18.36,73.27 5.45,30.76 12.01,49.29 46.93,57.57l-2.16 -64.65c-24.29,-97.59 2.65,83.33 -7.2,-24.33 94.44,-29.14 61.51,-81.44 133.96,-72.81l22.54 3.98c1.65,0.08 5.72,-0.16 7.35,-0.18 70.95,-0.76 -3.14,-6.07 29.22,-2.3l33.38 10.46c69.16,-75.97 40.83,-23.54 43.25,-103.17l119.18 -16.66c-20.41,37.86 -26.32,23.28 -66.07,41.61 51.73,27.5 30.07,-7.62 57.96,39.59 -38.31,33.62 -86.73,45.4 -137.6,71.65l-48.84 21.06c-4.32,1.3 -18.1,3.75 -22.24,5.04 -45.65,14.15 -22.3,-32.83 -44.94,43.08 34.27,-0.79 141.18,-50.62 173.32,-76.14 41.25,9.84 24.1,10.86 33.9,16.85 94.03,57.5 -45.25,-5.87 27.76,20.4l79.64 -72.02c40.99,4.54 64.09,16.57 71.08,42.64 5.25,19.59 10.74,70.51 21.66,107.53 49.52,-14.02 -4.78,-33.95 114.4,-31.24 -15.18,35.13 18.49,-19.61 -28.63,28.18 -22.39,22.71 -12.91,-31.32 -29.72,40.03 66.19,31.52 83.29,-33.36 97.72,-95.16 15.95,-68.28 48.67,-78.12 71.41,-146.84 50.66,-4.89 37.49,2.09 84.57,-9.83 44.85,-11.37 18.99,-27.5 57.29,-5.92 -45.14,39.26 -72.51,23.34 -94.97,73.57 78.8,59.63 101.99,-24.23 145.64,-66.82 39.65,-38.69 132.5,-71.08 196.85,-56.55 25.64,50.86 -10.71,8.34 10.96,64.43l78.89 16.39 4.6 -71.67c-39.07,-30.94 -24.39,-8.56 -60.83,-27.18 45.74,-52.91 85.22,-95.49 169.83,-92.67 -1.05,88.41 -15.42,24.07 -33.15,70.66l96.17 -24.03c-16.5,52.68 -18.66,42.45 -3.36,91.05 65.49,-40.34 21.05,-112.36 68.88,-161.14 33.58,-34.23 32.12,-8.34 84.09,-30.37l25.42 -11.48c-21.05,84.82 -18.44,27.43 -70.63,81.85 -26.1,27.22 -33.87,60.21 -18.11,85.9 36.86,-20.54 22.85,-26.79 26.87,-79.03 97.96,-2.71 32.33,-12.77 75.96,-25.07 47.15,-13.31 2.34,21.29 59.99,3.83 19.94,-38.79 -16.37,-54.08 43.25,-83.84 54.63,-27.27 106.77,0.56 107.97,0.19 53.41,-36.26 1.91,-40.68 62.45,-56.84 51.63,-13.78 13.25,67.03 99.99,-38.17 1.98,-2.39 4.04,-5.83 6.05,-8.16 34.03,-39.22 56.02,-30.09 82.83,-75.39 -2.19,-1.61 -6.78,-5.08 -7.67,-2.69 -0.89,2.34 -6.34,-2.2 -7.53,-2.65l-38.04 -17.76c-37.9,-15.1 -268.86,117.84 -386.53,160.71 -73.4,26.75 -133.07,62.58 -178.56,38.74 30.88,-41.65 104.1,-32.75 151.6,-64.54 20.49,-13.71 1.96,-4.38 25.78,-16.36 27.52,-13.83 34.81,-9.21 65.54,-26.69 29.81,-55.39 -30.04,-27.49 74.47,-102.45 46.34,-33.26 55.19,-52.07 100.2,-66.96 10.71,-3.53 14.23,0.61 36.35,-7.88 -25.22,-24.93 -35.32,0.91 -92.68,4.3 18,-42.29 36.82,-60.53 64.85,-91.02 71.76,-2.15 -13.95,3.26 53.8,12.36 18.35,-35.47 28.38,-63.08 48.43,-103.22 33.78,-67.61 45.63,-28.58 70.69,-97.4 -64.18,-18.87 -53.76,10.88 -128.21,40.2 -43.83,17.25 -60.14,48.21 -106.54,46.12 -41.14,-1.86 -20.88,2.86 -45.12,-18.65 77.96,-19.89 152.71,-28.87 195.7,-102.47 -56.5,17.86 -107.06,72.78 -165.58,75.1 -86.59,3.43 14.52,-11.02 -58.22,-15l-86.99 86.88 43.54 21.3c1.95,1.08 6.2,3.38 9.04,5.47l-94.16 29.86c-18.39,-44.73 7.98,-7.89 -0.98,-44.85l-67.87 22.86 -58.3 -74.87c-17.96,-14.27 -2.05,-55.36 -92.7,13.11 10.12,16.21 6.72,27.82 41.43,32.96 29.33,4.33 8.31,-17.07 37.45,-5.83l-52.47 46.27c-19.16,29.78 12.82,10.83 -23.23,37.34 -14.67,10.79 -7.28,4.47 -26.25,12.93 -19.88,8.87 -42.36,18.04 -58.21,23.13 -60.99,19.6 -62.51,1.29 -129.64,34.37 -103.03,50.79 -84.58,40.85 -101.48,8.76 24.03,-8.57 9.26,8.69 41.64,-2.6 40.18,-14.01 48.03,-84.29 82.6,-121.98 62.88,33.05 57.56,104.74 76.05,40.66 32.83,-113.88 -27.88,-144.32 151.06,-206.13 42.03,-14.51 104.9,-17.71 142.14,-33.1 116.39,-48.08 40.24,-21.1 114.09,5.09 52.85,18.72 49.68,-38.14 71.8,-63.33 60.7,-69.12 178.61,-55.12 206.63,-151.02 -65.59,22.28 -82.18,56.67 -151.21,67.74 -2.33,-3.86 -26.08,-47.79 -22.75,-105.09 159.59,-106.44 126.34,-48.73 233.29,-170.52 20.76,-23.64 60.35,-43.85 83.49,-60.1 -13.67,-7.94 8.92,-7.12 -22.21,-5.29 -30.21,1.78 -53.23,23.1 -76.4,36.57 -46.99,27.32 -91.83,16.64 -141.14,32.51l-10.58 -44.67c-0.46,-1.51 -1.49,-5.84 -2.99,-8.39l-116.27 28.76c22.96,-39.1 61.04,-58.31 105.38,-64.05 -1.6,-43.15 -26.7,-9.12 8.17,-70.39 -32,-20.95 -35.92,-15.18 -51.55,-55.49 -148.53,47.22 -50.84,22.78 -102.03,88.74 -49.58,63.94 -97.36,-11.63 -133.67,-39.05 92.3,-43.78 38.29,-39.61 65.62,-95.86 34.52,-71.06 64.03,-42.56 123.9,-74.7 -46.29,-27.29 -127.82,32.02 -194.37,47.99 -79.88,19.16 -136.8,50.51 -224.74,60.69 4.4,-54.33 9.19,-33.27 15.22,-77.35l-63.92 50.61c-37.71,25.84 -102.42,87.94 -156.14,73.55l-46.95 -33.4c36.01,-56.11 76.62,-51.38 108.87,-112.67l-241.63 159.6c-41.5,32.55 -41.05,36.79 -84.64,19.51 39.6,-44.28 46.07,-6.92 50.92,-64.92 9.41,-112.31 -126.07,-71.83 -21.05,-145.73l212 -90.09c29.03,-7.02 18.27,-5.13 40.2,-23.48 58.99,-49.33 26.38,-32.32 84.77,-29.69 36.54,1.64 86.38,-0.39 129.28,-2.78 -2.53,-38.67 -13.1,-38.96 -34.06,-61.66 119.15,-12.57 173.85,-35.46 255.34,-107.36 52.42,23.11 4,17.01 31.97,25.27 21.91,6.45 5.74,-3.09 47.74,-12.45 -2.49,3.78 -8.99,14.63 -8.73,16.99 2.91,25.47 -1.99,7.28 10.43,27.17 42.9,-9.37 37.39,-14.62 89.96,-23.39 -0.79,2.69 -12.3,37.87 -12.56,40 -9.49,77.72 -2.46,-29.94 -0.88,21.74l4.88 18.41c172.65,-75.01 124.48,-88.28 129.18,-176.72 124.57,-67.04 43.05,-25.64 46.29,-152.73 41.56,7.13 77.2,14.7 102.53,44.99 5.09,6.09 3.19,12.83 20.49,30.59l18.5 -34.66c18.09,-35.15 -20.59,-55.99 71.75,-39.91 -15.2,52.85 -13.08,11.41 -42.03,63.53l38.57 79.4 41.23 -36.61c21.51,-7.09 -8.66,18.31 20.28,-6.35 6.07,-5.17 18.37,-27.42 28.09,-39.95 30.36,0.23 60.85,4.97 86.44,11.71 38.22,10.07 42.91,25.95 64.74,18.94 29.34,-66.48 13.26,-41.4 -24.14,-67.83 69.76,-56.39 21.16,-11.83 49.33,-77.14 28.54,32.16 16,30.12 67.84,33.17 15.36,-36.34 4.04,-54.62 27.13,-84.02l43.32 42.81c-7.97,44.69 -20.61,30.96 -32.3,68.38 -8.08,25.9 3.71,35.28 7.09,47.97l76.86 -182.95 34.7 51.98 43.42 -20.86c2.24,2.46 5.04,3.54 6.15,7.87 1.51,5.88 11.01,12.12 13.83,14.15 19.74,14.18 8.21,11.83 37.59,18.12 11.51,-34.68 0.18,-36.04 18.75,-74.8l61.83 -89.62c1.91,-2.03 5.08,-4.54 7.09,-6.45 0.39,-0.36 117.05,-87.32 100.18,-204.56 -13.51,-93.85 -3.63,-82.46 15.4,-166.01 17.74,-77.9 -34.53,-224.28 -40.18,-314.3 -9.31,-148.26 48.68,-203.67 88.77,-307.37 44.18,4.65 54.96,8.53 87.36,16.39 19.31,-40.61 -2.01,-25.09 28.79,-71.22 34.37,-51.45 26.13,-8.39 48.62,-71.67 -24.95,-13.21 -54.87,-0.36 -64.95,-1.78 -27.99,-3.94 -4.94,-24.84 -42.54,-13.55 -67.28,20.21 -26.3,42.86 -43.99,101.19 -37.82,-56.49 27.59,-191.06 9.91,-252.37 -85,17.1 -89.81,86.04 -234.32,88.77l-5.8 -23.2c-20.04,-46.7 -51.67,-25.25 -110.62,-26.53 158.39,-82.24 181.39,4.57 240.45,-89.67 21.88,-34.92 7.73,8.46 23.24,-52.36 -69.46,10.51 -94.33,41.6 -133.43,25.32 22,-85.32 243.78,-43.08 213.09,-172.1 -10.11,-2.8 0.54,-5.95 -34.61,-2.43 -34.38,3.44 -5.1,-0.33 -32.78,6.8 -38.25,9.84 -13.36,11.24 -57.27,14.98 113.82,-133.23 146.76,-80.01 260.33,-134.49 50.58,-24.27 20.8,-41.98 97.61,-53.2 -21.85,41.98 -34.36,46.43 -76.9,71.52l-81.53 43.37c-21.9,15.23 -11.31,5.94 -25.77,22.04 6.07,10.71 10.54,22.71 15.97,31.41 11.59,18.57 11.82,17.46 20.09,27.56 40.35,-2.9 16.06,5.74 44.7,-11.76l36.7 -40.78 101.9 4.34 -38.9 -43.48c67.88,-59.3 19.68,-136.35 99.81,-168.73 4.47,11.9 -11.52,33.83 0,55.89l104.47 -41.54 -36.62 -101 -109.73 50.36c-30.02,9.24 -41.7,28.21 -63.43,49.82 -26.53,26.38 -38.27,28.34 -71.06,44.58l-27.14 -62.24c-51.07,46.03 -105.65,77.91 -158.13,114.74 -11.31,7.93 -67.08,48.38 -79.09,51.17 -43.74,10.14 -71.67,-17.9 -113.37,13.5 12.35,7.54 16.47,4 31.75,6.85 16.46,3.06 18.75,-0.66 28.97,5.77 -81.88,96.26 -271.36,148.54 -396.86,194.92 -40.9,15.12 -221.6,100.03 -203.12,-15.99 8.91,-55.89 55.54,-35.84 92.23,-53.06 38.37,-18 51.57,-59.04 100.19,-30.92 -45.54,59.28 -61.39,28.26 -132.17,65.75 10.66,26.89 5.02,10.82 15.35,26.9 49.94,77.69 -18.27,-43.84 16.62,24.38 75.15,-62.01 208.22,-97.17 276.88,-150.45 35.95,-27.91 67.12,-19.52 114.26,-34l-20.03 -8.92c-70.01,-12.55 -123.83,54.57 -197.01,62.43 27.79,-34.28 69.51,-60.68 113.25,-89.69 96.6,-64.12 76.44,-21.38 114.59,-8.82 30.68,-26.53 74.22,-48.07 99.55,-91.08l-47.99 -9.74c47.34,-55.67 81.94,-43.53 143.2,-68.81 61.04,-25.18 6.14,6.57 46.97,-35.54l90.48 -57.44c46.13,-22.83 66.34,-38.47 121.75,-47.54 -22.6,39.44 -40.19,56.86 -77.51,77.94 34.35,27.4 56.1,34.25 97.12,4.13 21.55,-15.84 57.1,-60.38 70.58,-80.05l-53.88 -13.56c36.41,-50.47 93.51,-77.12 117.09,-115.09 -104.97,21.81 -122.27,114.96 -270.28,79.29 -32.12,82.88 -65.04,63.87 -143.48,86.61 -61.46,17.82 -34.71,54.71 -100.06,65.57 -82.06,13.63 -35.62,1.01 -48.94,-7.85 120.88,-84.55 218.29,-73.86 228.85,-189.97 -77.15,18.2 -101.08,81.69 -167.14,117.19 -96.15,51.66 -203.32,83.9 -295.16,139.9 -95.11,58 5.04,19.26 -63.45,85.69 -53.77,52.16 -167.59,51.08 -221.12,76.21 -0.88,2.48 -0.29,4.18 -0.3,7.88l-2.31 72.6 -78 -2.89c-33.15,-70.77 30.09,-54.6 -105.13,-81.93 -28.47,-5.75 -13.17,2.23 -31.21,-7.63 29.32,-48.77 86.5,-35.65 141.05,-67.83l-21.08 -10.64c-2.48,-1.11 -7.32,-3.51 -10.36,-4.84l-99.98 -31.07c38.95,-36.92 61.74,-61.34 130,-62.5 -10.11,-143.05 93.68,-70.71 184.47,-162.25 -2.15,-0.94 -6.23,-2.61 -7.04,-0.4l-43.04 -12.47c-18.11,-10.44 -2.3,-31.41 -8.56,-9.43 -117.91,28.12 -193.07,110.11 -257.55,45.77l101.9 -17.72c-52.78,-1.66 -98.41,-6.84 -136.82,-21.06 46.75,-34.11 36.3,-9.07 91.1,-25.38 -33.1,-24.28 -133.58,-5.97 -180.15,-7.67 42.79,-70.17 157.48,-33.63 126.58,-128.83l90.51 -8.52c-43.49,-44.7 -149.76,-2.85 -202.2,-38.84 -48.01,-32.96 -0.06,-32.36 -74.92,-44.79 -44.33,-7.35 -62.46,5.45 -103.53,-15.53 38.16,-19.85 38.3,-0.55 86.03,-13.1l78.19 -33.96c76.69,-39.44 120.41,-8.01 131.32,-61.46 -109.11,-31.75 -611.44,-39.91 -793.48,-60.84 -62.41,-7.17 -135.91,-27.23 -198.81,-21.96 -65.15,5.47 -21.91,-11.81 -54.1,27.63 -32.43,-31.72 -26.63,-25.94 -82.1,-35.31l-75.71 -49.61c-1.16,-1.83 -2.8,-6.32 -5,-8.92 -27.49,8.78 -54.26,14.72 -91.07,8.44 -35.3,-6.02 -4.38,-2.09 -45.33,-11.51 -22.99,-5.29 -34.43,-5.44 -53.98,-10.03 7.48,-103.54 32.18,-86.37 45.29,-163.44 4.53,-26.62 -0.85,-40.36 4.35,-73.41 45.74,-8.59 38.57,3.75 96.51,-12.28 73.61,-20.36 39.21,-12.62 71.36,-62.58l38.64 37.69c36.36,-46.53 111.6,-73.8 174.19,-72.66 -17.99,31.98 -58.41,61.76 -95.35,80.7 59.9,9.62 79.93,-17.35 117.55,-42.08 -3.25,-77.2 -29.99,39.68 -15.8,-56.25 9.11,-61.61 -3.34,-19 43.73,-51.63 31.17,-21.6 97.32,-60 114.99,-84.77 -69.91,20.76 -37.64,41.81 -140.51,48.72 9.76,-66.22 27.15,-62.99 46.72,-116.67 11.08,-30.38 7.1,-18.5 25.52,-44.23 21.9,-30.59 16.96,-7.08 27.25,-54.42l-120.43 49.18c44.93,-180.58 160.06,-106.1 210.21,-182.93l-45.74 -14.46c-32.52,-10.07 -10.69,3.48 -39.12,-12.67 20.69,-39.69 41.44,-31.56 48.98,-81.4l-88.12 -37.67c6.7,-24.52 41.81,-80.41 55.76,-106.49 73.45,-1.51 103.6,-5.03 146.11,-45.74 -57.99,-40.85 -140.31,34.63 -205.74,28.08 25.28,-45.47 38.47,-26.23 26.82,-49.48 -121.13,49.26 -108.48,-5.24 -115.19,-11.68 58.21,-15.22 122.94,-20.01 145.67,-76.02l-90.98 29.16c32.52,-37.85 59.24,-33.1 101.2,-57.54 2.21,-9.44 1.83,-39.65 2.18,-59.69l-10.48 -60.58c39.6,-26.18 51.58,-30.12 58.3,-81.39 -48.39,-21.56 -102.38,20.66 -185.61,12.92 8.09,-10.26 78.3,-77.75 95.92,-93.36 -2.85,-2.2 -7.77,-8.32 -9.29,-5.52 -1.51,2.76 -7.15,-4.29 -9.26,-5.35 -28.57,-14.32 -125.24,-28.09 -142.08,-47.56 9.86,-57.02 27.28,-21.25 73.75,-44.04 57.87,-28.38 -31.68,-6.27 87.26,-92.12 2.7,-1.94 6.62,-5.69 8.78,-7.35 2.18,-1.68 6.23,-4.7 8.51,-7.82 -137,0.23 -242.54,68.56 -377.31,37.1 28.97,-29.71 10.47,-36.65 132.61,-46.3l43.24 -80.44c-75.96,-23.46 -42.93,-32.03 -140.48,-11.85 -151.27,31.31 -391.3,70.72 -531.5,46.59 -6.74,5.15 -5.99,4.99 -11.04,11.78 -0.64,0.85 -3.04,4.27 -3.71,5.23 -0.76,1.06 -3.25,4.85 -3.98,5.92l-292.9 65.29c-51.26,11.93 -32.78,-2.24 -93.68,-0.86 -77.6,1.75 -117.62,23.06 -181.62,48.42 -117.75,46.67 -12.63,88.56 -129.29,97.29 30.06,-23.13 24.7,-12.31 41.71,-52.03 -41.33,3.73 -51.61,5.74 -82.94,28.41 0.63,108.93 -2.91,12.38 46.27,94.96 -51.02,72.97 -23.04,22.75 -27.17,89.17 -62.5,10.82 -100.7,24.08 -121.51,77.76 80.54,-19.56 103.3,-27.19 194.92,-30.16 73.05,-2.38 154.85,13.61 185.38,-55.39l-32.31 -6.9c-2.54,0.13 -7.13,0.46 -9.87,0.84 -51.18,6.94 28.59,10.29 -44.18,16.02 2.5,-89.06 176.04,-110.25 202.99,-23.51 -61.46,23.56 3.49,-0.34 -37.65,-0.21 -3.16,0.01 -7.44,-0.78 -10.74,-0.61 -77.64,4.04 -32.62,43.08 -93.47,77.35 -32.98,18.59 -154.57,17.4 -214.3,34.47l5.92 21.08c4.1,20.58 7.6,10.63 6.27,44.28l-54.15 15.33c-28.73,15.18 33.16,22.36 -76.7,28.39 -2.43,53.46 -15.31,76.55 -46.54,100.76l55.91 45.43c-38.1,33.63 -49.44,75.81 -91.85,66.15 -65.4,-14.88 -16.34,-64.02 -8.83,-137.22 -81.53,14.12 -102.09,36.59 -197.06,39.78 -2.59,-3.66 -4.69,-14.3 -5.6,-12.22l-21.54 -68.49 -67.36 5.92c-51.36,87.32 -4.34,114.77 -108.46,161.3 -135.16,60.41 -39.21,44.45 -104.1,98.31 -15.4,12.78 -30.12,14.12 -49.82,13.53 -6.5,-56.65 17.64,-46.55 63.24,-81.69 71.1,-54.78 44.27,-24.29 26.37,-83.29 71.93,-4.12 64.28,18.16 86.43,-29.21 -55.44,-31.46 -113.73,32.18 -183.79,0 24.85,-15.02 27.64,-12.43 59.36,-20.74l44.73 -10.59c3.13,-0.86 7.29,-2.18 10.03,-2.98l18.76 -6.39c-32.46,-19 -92.37,-12.41 -134.81,1.55l-45.2 25.58 53.68 102.79c-46.34,17.8 -73.35,13.72 -108.77,26.74 -49.72,18.27 -36.86,35.74 -89.43,50.78l-30.26 -74.1c0.85,-15.74 12.3,-0.64 3.11,-21.5 -84.15,8.86 -272,97.6 -402.57,33.45 7.79,-63.83 38.92,-62.03 83.84,-63.5 1.38,-0.05 5.39,0.6 7.79,-0.4l12.25 -54.1 -53.43 -22.89c-18.41,55.44 12.97,19.32 -58.3,58.25l-60.74 35.36c15.92,48.02 25.8,19.91 20.93,91.91 -28.33,13.33 -78.98,35.13 -105.83,38.57l-30.72 -51.23c34.05,-46.9 41.9,0.01 83.14,-81.03 -42.38,-7.45 -77.16,-8.38 -120.4,-0.68 -23.21,4.14 -34.37,7.24 -49.19,17.87l-32.28 36.87c-76.14,-1.04 -129.29,16.6 -136.47,-55.35 32.2,-26.25 -6.55,-7.6 42.78,-18.52 43.2,-9.58 94.16,-2.54 133.07,-22.18l-253.76 -11.09c-60.59,2.96 -132.82,48.92 -159.48,85.4 -39.25,53.75 38.25,36.19 -46.74,50.92 -5.93,-20.93 10.49,-36.71 6.67,-64.8l-210.38 -32.13c-94.69,-8.06 -166.28,22.61 -226.31,-41.85l44.93 -40.81c-1.24,-64.58 -23.67,-28.29 -3.09,-72.41l-46.12 -21.51c-2.08,-0.73 -6.07,-2.14 -8.01,-2.69 -1.78,-0.51 -6.03,-1.25 -7.58,-1.6l-14.6 -0.83c-1.4,2.69 -1.31,4.68 -1.43,8.98 -0.11,4.32 -1.01,7.27 -1.16,9.04 -4.89,58.62 4.28,80.45 -93.18,75.24 4.33,78.3 -4.87,21.5 34.15,71.81l-116.79 -15.18c2.2,-34.28 8.94,-25.54 30.07,-60.89 -64.58,-40.55 1.84,-39.35 -79.13,-29.37 -38.5,73.61 -13.32,104.95 -117.16,137.46 -32.92,10.31 -75.39,15.22 -109.68,5.94 -68.13,-18.42 -29.17,-22.96 -53.56,-79.56 -127.24,-2.68 -65.74,107.37 -170.43,64.3l-54.52 -37.01 116.22 -6.12c-46.6,-35.97 -112.81,-48.83 -158.33,-36.51 -80.88,21.89 -91.33,27.28 -141.15,-36.11 28.06,-30.02 75.52,-54.11 133.22,-49.96 135.25,9.74 -20.1,35.61 138.14,52.77 -14.98,-44.8 -17.7,-36.04 -32.98,-73.46l109.12 -31.12c-175.76,-11.64 -290.23,75.84 -486.52,55.7 -59.31,-11.14 50.68,20.98 -25.53,-21.63 -58.05,-32.45 -131.61,-48.51 -180.28,-94.03 41.14,-2.88 96.56,-3.29 130.87,-20.84 31.07,-15.89 5.98,-5.29 24.49,-17.27 97.97,-63.38 245.19,-42.11 344.21,-93.82 -75.02,-3.25 -182.9,21.63 -257.26,29.08 -52.88,5.3 -67.86,-10.48 -115.6,-9.37 -42.9,1 -90.65,20.73 -124.92,-10.93 11.46,-47.59 -37.64,-16.75 42.76,-36.42 41.26,-10.09 34.82,7.98 80.96,-15.71 12.58,-14.71 -4.9,-54.27 -0.21,-81.13l-110.97 -5.7c-56.19,10.02 -24.42,-19.64 -52.75,36.86 -8.29,-11.11 -10.61,-30.99 -35.76,-41.49l144.35 -47.03c-44.3,-21.78 -244.78,22.71 -325.47,15.28 41.03,-43.4 433.28,-58.72 551.55,-113.42 -134.37,-33.62 -568.9,153.75 -644.56,-49.68 77.41,8.19 21.35,28.68 80.5,32.46 20.89,1.33 27.58,-11.38 26.9,-28.62 -0.01,-0.48 -1.63,-3.18 -1.04,-4.64 71.16,-29.33 121,-14.72 155.66,-27.03l-88.32 -45.18c-2.06,-2.01 -5.2,-5.99 -7.69,-9.08 24.02,-18.26 3.93,-7.75 37,-17.39l97.94 -14.6c-89.97,-18.19 -217.93,2.96 -292.8,16.67 -69.27,12.7 -259.77,-14.83 -349.15,-9.18l-150.9 -0.76c-73.92,-5.63 -93.87,21.61 -175.34,17.47 -57.06,-2.9 -103.13,-19.16 -161.77,-15.91 -128.16,7.13 -58.89,45.98 -109.36,73.06zm-6136.7 5364.9l228.9 -1278.41c-41.74,18.17 -102.33,48.47 -181.09,90.88l118.48 -623.38c47.13,-260.53 86.17,-467.87 117.81,-623.38 373.62,-84.14 749.94,-133.96 1128.28,-149.44 113.1,-5.39 216.78,-8.08 311.7,-8.08 218.11,0 383.72,12.8 496.82,39.05l-110.41 966.71c-291.5,15.48 -481.33,27.59 -567.5,35.67 -216.1,15.48 -405.27,37.7 -568.19,66.65l-51.16 296.2 670.5 -94.92 114.45 690.7 -919.6 133.97 -138 753.3c-110.41,-47.12 -219.46,-96.26 -327.18,-146.08l-323.81 -149.44zm2680.83 -2434.3c373.62,-81.45 750.61,-129.92 1132.32,-146.08 113.1,-4.72 216.76,-7.4 311.69,-7.4 218.13,0 382.38,12.8 492.79,39.05l-110.41 966.71c-286.78,15.48 -477.3,27.59 -572.21,35.67 -215.42,18.17 -405.95,40.4 -571.55,66.65l-43.75 241 666.46 -94.92 67.32 517.02 -832.07 121.85 -51.17 300.24c367.57,-28.94 721.67,-96.26 1060.96,-201.29 47.13,154.84 119.16,370.94 216.78,646.95 -470.57,157.53 -1016.53,229.56 -1637.23,216.78 -26.25,-68.67 -61.25,-173.69 -106.36,-315.74l-280.05 -125.88 201.28 -1100.69c-42.4,18.17 -102.32,48.47 -181.75,90.88 50.48,-278.7 129.24,-696.08 236.96,-1250.81zm3035.6 1424.49c389.1,-74.05 789.65,-117.14 1203,-130.6l-134.64 1049.52c-115.12,-13.47 -370.26,28.94 -764.76,125.88 -379,97.61 -576.25,160.9 -591.74,189.17l-587.7 -267.93 453.73 -2524.49 646.95 292.17 -224.84 1266.28zm1926.16 -1586.06l646.95 292.17 -465.18 2559.5 -646.94 -295.54 465.17 -2556.14zm2451.27 31.65l473.25 532.5 -603.18 859.67 465.18 1306.01 -902.76 110.41 -181.77 -532.5 -418.05 595.78 -465.18 -536.54 607.22 -867.75 -481.33 -1408.33 871.79 -90.88 220.8 623.38 414.03 -591.74z"/>
 </g>
</svg>
